# xmcd
#
# Track frame offsets:
# 165
# 14539
# 28375
# 37381
# 66479
# 85044
# 102714
# 123610
# 137331
# 154928
# 169436
# 187472
# 202212
# 217335
#
# Disc length: 3643 seconds
#
#
# Revision: 0
# Processed by: cddbd v1.4PL0 Copyright (c) Steve Scherf et al.
# Submitted via: FreeRIP 2.30 
#
DISCID=ef0e390e
DTITLE=Johnny Hoy and the Bluefish - In Action
DYEAR=2001
DGENRE=Blues
TTITLE0=Every Woman I Know Is Crazy
TTITLE1=Worryin' Kind
TTITLE2=Whip Ass Juice
TTITLE3=Miss Misery
TTITLE4=When Did You Leave Heaven
TTITLE5=I'm Tired
TTITLE6=She Was A Dreamer
TTITLE7=Too Young To Die
TTITLE8=Electric Fence
TTITLE9=Feel Like Goin' Home
TTITLE10=Big Texas Swing
TTITLE11=Automatic
TTITLE12=Georgia Slop
TTITLE13=Timber, I'm Falling In Love
EXTD=Live on the Cape
EXTT0=
EXTT1=
EXTT2=
EXTT3=
EXTT4=
EXTT5=
EXTT6=
EXTT7=
EXTT8=
EXTT9=
EXTT10=
EXTT11=
EXTT12=
EXTT13=
PLAYORDER=
